<svg width="244" height="44" viewBox="0 0 244 44" fill="none" xmlns="http://www.w3.org/2000/svg">
<path d="M0 25.3552V18.6777L20.9577 7.5485V14.226L6.48227 21.8229V22.21L20.9577 29.8069V36.4844L0 25.3552Z" fill="#5294E2"/>
<path d="M57.8637 43.4523L73.5089 0H79.9912L64.346 43.4523H57.8637Z" fill="#5294E2"/>
<path d="M87.6729 29.8069L102.148 22.21V21.8229L87.6729 14.226V7.5485L108.631 18.6777V25.3552L87.6729 36.4844V29.8069Z" fill="#5294E2"/>
<path fill-rule="evenodd" clip-rule="evenodd" d="M42.8293 37.6586C40.5737 37.6586 38.4223 37.2357 36.3751 36.3898C34.3279 35.544 32.5688 34.4346 31.0978 33.0616C29.6267 31.6886 28.3457 30.1686 27.2547 28.5014C26.1637 26.8342 25.3485 25.167 24.8091 23.4999C24.2697 21.8327 24 20.2758 24 18.8293C24 17.1376 24.8213 15.3969 26.464 13.6071C26.5375 11.8174 26.9972 9.10206 27.8431 5.46124C28.6889 1.82041 29.3693 0 29.8842 0C30.35 0 31.5391 0.833589 33.4514 2.50077C35.3638 4.16795 37.08 5.81061 38.6001 7.42875C40.0466 7.18358 41.4563 7.06099 42.8293 7.06099C44.2023 7.06099 45.612 7.18358 47.0585 7.42875C48.5786 5.81061 50.2948 4.16795 52.2072 2.50077C54.1195 0.833589 55.3086 0 55.7745 0C56.2893 0 56.9697 1.82041 57.8155 5.46124C58.6614 9.10206 59.1211 11.8174 59.1946 13.6071C60.8373 15.3969 61.6586 17.1376 61.6586 18.8293C61.6586 20.2758 61.3889 21.8327 60.8495 23.4999C60.3102 25.167 59.495 26.8342 58.4039 28.5014C57.3129 30.1686 56.0319 31.6886 54.5609 33.0616C53.0898 34.4346 51.3307 35.544 49.2835 36.3898C47.2363 37.2357 45.0849 37.6586 42.8293 37.6586ZM35.7315 14.1221C34.448 14.1307 33.3508 14.5904 32.4401 15.5011C31.5207 16.4205 31.061 17.5299 31.061 18.8293C31.061 20.1287 31.5207 21.2381 32.4401 22.1575C33.3508 23.0683 34.448 23.5279 35.7315 23.5365C35.0898 23.5279 34.5443 23.0683 34.095 22.1575C33.6414 21.2381 33.4147 20.1287 33.4147 18.8293C33.4147 17.5299 33.6414 16.4205 34.095 15.5011C34.5443 14.5904 35.0898 14.1307 35.7315 14.1221ZM35.7561 14.122L35.7315 14.1221L35.7499 14.122L35.7561 14.122ZM35.7561 14.122L35.7683 14.122C37.0677 14.122 38.1771 14.5817 39.0965 15.5011C40.0159 16.4205 40.4756 17.5299 40.4756 18.8293C40.4756 20.1287 40.0159 21.2381 39.0965 22.1575C38.1771 23.0769 37.0677 23.5366 35.7683 23.5366L35.7561 23.5366C36.4031 23.5337 36.9589 23.074 37.4232 22.1575C37.8891 21.2381 38.122 20.1287 38.122 18.8293C38.122 17.5299 37.8891 16.4205 37.4232 15.5011C36.9589 14.5846 36.4031 14.1249 35.7561 14.122ZM49.8903 14.122C48.5909 14.122 47.4815 14.5817 46.5621 15.5011C45.6427 16.4205 45.183 17.5299 45.183 18.8293C45.183 20.1287 45.6427 21.2381 46.5621 22.1575C47.4815 23.0769 48.5909 23.5366 49.8903 23.5366L49.8995 23.5366L49.9087 23.5366L49.9271 23.5365C51.2107 23.5279 52.3078 23.0683 53.2185 22.1575C54.1379 21.2381 54.5976 20.1287 54.5976 18.8293C54.5976 17.5299 54.1379 16.4205 53.2185 15.5011C52.3078 14.5904 51.2107 14.1307 49.9271 14.1221C50.5688 14.1307 51.1143 14.5904 51.5636 15.5011C52.0172 16.4205 52.244 17.5299 52.244 18.8293C52.244 20.1287 52.0172 21.2381 51.5636 22.1575C51.1143 23.0683 50.5688 23.5279 49.9271 23.5365L49.8995 23.5366C49.2537 23.5323 48.699 23.0726 48.2354 22.1575C47.7696 21.2381 47.5366 20.1287 47.5366 18.8293C47.5366 17.5299 47.7696 16.4205 48.2354 15.5011C48.6997 14.5846 49.2555 14.1249 49.9026 14.122L49.8903 14.122ZM36.6068 27.4683L31 25.9659L31.2588 25L36.8656 26.5023L36.6068 27.4683ZM55 25.988L49.2648 27.5248L49 26.5368L54.7353 25L55 25.988ZM36.5 29H31V28H36.5V29ZM55 29.0798H49V28.0798H55V29.0798ZM36.8649 30.9838L31.1791 32.0187L31 31.0349L36.6858 30L36.8649 30.9838ZM54.8168 32.1283L49.0008 31.0697L49.184 30.0634L55 31.122L54.8168 32.1283Z" fill="#5294E2"/>
<path d="M121.327 29.9821V16.5293H124.091V18.3803H124.247C124.456 17.7894 124.751 17.2853 125.134 16.8682C125.534 16.4337 126.09 16.2164 126.802 16.2164C127.48 16.2164 128.019 16.4163 128.419 16.816C128.819 17.1984 129.079 17.7459 129.201 18.4585H129.331C129.557 17.8502 129.887 17.3288 130.322 16.8943C130.774 16.4423 131.408 16.2164 132.225 16.2164C133.216 16.2164 133.929 16.5727 134.363 17.2853C134.798 17.9979 135.015 19.0495 135.015 20.44V29.9821H132.277V20.831C132.277 20.0489 132.164 19.5014 131.938 19.1885C131.73 18.8757 131.408 18.7192 130.974 18.7192C130.574 18.7192 130.235 18.8496 129.957 19.1103C129.696 19.371 129.566 19.7708 129.566 20.3096V29.9821H126.802V20.831C126.802 20.0489 126.698 19.5014 126.489 19.1885C126.281 18.8757 125.959 18.7192 125.525 18.7192C125.108 18.7192 124.76 18.8496 124.482 19.1103C124.221 19.371 124.091 19.7708 124.091 20.3096V29.9821H121.327Z" fill="#5294E2"/>
<path d="M144.13 30.2949C143.052 30.2949 142.096 30.1298 141.262 29.7996C140.427 29.4693 139.724 29 139.15 28.3917C138.594 27.7834 138.168 27.0534 137.872 26.2017C137.577 25.3327 137.429 24.3593 137.429 23.2817C137.429 22.1867 137.577 21.2047 137.872 20.3357C138.185 19.4666 138.62 18.7279 139.176 18.1196C139.732 17.5113 140.401 17.042 141.184 16.7118C141.983 16.3815 142.878 16.2164 143.869 16.2164C144.842 16.2164 145.72 16.3815 146.502 16.7118C147.284 17.0246 147.945 17.4765 148.484 18.0675C149.04 18.6584 149.466 19.371 149.761 20.2053C150.056 21.0396 150.204 21.9608 150.204 22.9689V24.0639H140.766V24.4028C140.766 25.3761 141.071 26.167 141.679 26.7753C142.287 27.3662 143.139 27.6617 144.234 27.6617C145.068 27.6617 145.781 27.4966 146.372 27.1664C146.98 26.8187 147.484 26.3668 147.884 25.8107L149.787 27.7139C149.3 28.4265 148.588 29.0348 147.649 29.5389C146.728 30.0429 145.555 30.2949 144.13 30.2949ZM143.895 18.6671C142.956 18.6671 142.2 18.9626 141.627 19.5535C141.053 20.1445 140.766 20.9266 140.766 21.9V22.0825H146.867V21.8478C146.867 20.8745 146.598 20.101 146.059 19.5275C145.537 18.9539 144.816 18.6671 143.895 18.6671Z" fill="#5294E2"/>
<path d="M153.583 29.9821V16.5293H156.92V18.9017H157.051C157.346 18.1717 157.798 17.546 158.407 17.0246C159.032 16.4858 159.893 16.2164 160.988 16.2164C162.309 16.2164 163.377 16.6596 164.194 17.546C165.029 18.4151 165.446 19.6665 165.446 21.3003V29.9821H162.109V21.7696C162.109 19.8229 161.266 18.8496 159.58 18.8496C159.232 18.8496 158.902 18.8931 158.589 18.98C158.276 19.0669 157.989 19.2059 157.729 19.3971C157.485 19.5709 157.285 19.7882 157.129 20.0489C156.99 20.3096 156.92 20.6225 156.92 20.9875V29.9821H153.583Z" fill="#5294E2"/>
<path d="M182.278 31.3899C182.278 32.7978 181.687 33.8319 180.505 34.4924C179.34 35.1703 177.515 35.5092 175.03 35.5092C173.813 35.5092 172.796 35.431 171.98 35.2746C171.163 35.1355 170.502 34.9269 169.998 34.6488C169.511 34.3707 169.164 34.0318 168.955 33.6321C168.747 33.2497 168.642 32.8152 168.642 32.3285C168.642 31.5811 168.86 31.0075 169.294 30.6078C169.729 30.208 170.337 29.9125 171.119 29.7214V29.5128C170.598 29.339 170.181 29.0956 169.868 28.7828C169.572 28.4699 169.425 28.0354 169.425 27.4792C169.425 26.8187 169.642 26.3234 170.076 25.9932C170.528 25.6629 171.119 25.4109 171.849 25.2371V25.1067C171.05 24.7243 170.424 24.1855 169.972 23.4903C169.52 22.7951 169.294 21.9521 169.294 20.9614C169.294 20.214 169.425 19.5535 169.685 18.98C169.963 18.389 170.346 17.8937 170.832 17.4939C171.336 17.0768 171.936 16.7639 172.631 16.5553C173.327 16.3294 174.1 16.2164 174.952 16.2164C175.855 16.2164 176.672 16.3381 177.402 16.5814V16.0078C177.402 15.4864 177.567 15.0519 177.898 14.7043C178.245 14.3566 178.723 14.1828 179.332 14.1828H181.756V16.6857H178.576V17.1289C179.236 17.5287 179.74 18.0501 180.088 18.6932C180.453 19.3189 180.635 20.075 180.635 20.9614C180.635 21.7088 180.496 22.3779 180.218 22.9689C179.957 23.5598 179.575 24.0552 179.071 24.4549C178.584 24.8547 177.985 25.1676 177.272 25.3935C176.577 25.6021 175.803 25.7064 174.952 25.7064C174.604 25.7064 174.265 25.6977 173.935 25.6803C173.622 25.6455 173.318 25.5847 173.022 25.4978C172.779 25.5847 172.544 25.7237 172.318 25.9149C172.092 26.1061 171.98 26.3582 171.98 26.671C171.98 27.0881 172.179 27.3489 172.579 27.4531C172.979 27.5401 173.457 27.5835 174.013 27.5835H177.063C178.002 27.5835 178.802 27.6791 179.462 27.8703C180.122 28.0441 180.661 28.3048 181.078 28.6524C181.496 28.9827 181.8 29.3824 181.991 29.8517C182.182 30.321 182.278 30.8337 182.278 31.3899ZM179.149 31.6246C179.149 31.2248 178.984 30.9033 178.654 30.6599C178.341 30.434 177.75 30.321 176.881 30.321H172.24C171.719 30.6165 171.458 31.051 171.458 31.6246C171.458 32.0938 171.649 32.4849 172.032 32.7978C172.431 33.1106 173.101 33.2671 174.039 33.2671H176.203C178.167 33.2671 179.149 32.7196 179.149 31.6246ZM174.952 23.5164C175.803 23.5164 176.429 23.3165 176.829 22.9167C177.229 22.4996 177.428 21.9608 177.428 21.3003V20.6225C177.428 19.962 177.229 19.4319 176.829 19.0321C176.429 18.615 175.803 18.4064 174.952 18.4064C174.117 18.4064 173.5 18.615 173.101 19.0321C172.701 19.4319 172.501 19.962 172.501 20.6225V21.3003C172.501 21.9608 172.701 22.4996 173.101 22.9167C173.5 23.3165 174.117 23.5164 174.952 23.5164Z" fill="#5294E2"/>
<path d="M191.236 30.2949C190.211 30.2949 189.289 30.1298 188.472 29.7996C187.656 29.4693 186.96 29 186.387 28.3917C185.831 27.7834 185.396 27.0447 185.083 26.1757C184.788 25.3066 184.64 24.3333 184.64 23.2557C184.64 22.178 184.788 21.2047 185.083 20.3357C185.396 19.4666 185.831 18.7279 186.387 18.1196C186.96 17.5113 187.647 17.042 188.446 16.7118C189.263 16.3815 190.185 16.2164 191.21 16.2164C192.635 16.2164 193.782 16.5119 194.651 17.1028C195.52 17.6938 196.181 18.4759 196.633 19.4492L194.052 20.8571C193.808 20.2835 193.461 19.8229 193.009 19.4753C192.574 19.1103 191.975 18.9278 191.21 18.9278C190.219 18.9278 189.455 19.2146 188.916 19.7882C188.394 20.3617 188.134 21.1439 188.134 22.1346V24.3767C188.134 25.3501 188.394 26.1322 188.916 26.7232C189.455 27.2967 190.237 27.5835 191.262 27.5835C192.062 27.5835 192.696 27.401 193.165 27.036C193.652 26.671 194.043 26.1843 194.339 25.576L196.841 27.0621C196.389 28.018 195.703 28.8002 194.782 29.4085C193.878 29.9995 192.696 30.2949 191.236 30.2949Z" fill="#5294E2"/>
<path d="M206.347 30.2949C205.322 30.2949 204.401 30.1298 203.584 29.7996C202.784 29.4693 202.098 29 201.524 28.3917C200.968 27.7834 200.533 27.0447 200.22 26.1757C199.925 25.3066 199.777 24.3333 199.777 23.2557C199.777 22.178 199.925 21.2047 200.22 20.3357C200.533 19.4666 200.968 18.7279 201.524 18.1196C202.098 17.5113 202.784 17.042 203.584 16.7118C204.401 16.3815 205.322 16.2164 206.347 16.2164C207.355 16.2164 208.268 16.3815 209.085 16.7118C209.902 17.042 210.588 17.5113 211.144 18.1196C211.718 18.7279 212.152 19.4666 212.448 20.3357C212.761 21.2047 212.917 22.178 212.917 23.2557C212.917 24.3333 212.761 25.3066 212.448 26.1757C212.152 27.0447 211.718 27.7834 211.144 28.3917C210.588 29 209.902 29.4693 209.085 29.7996C208.268 30.1298 207.355 30.2949 206.347 30.2949ZM206.347 27.7399C207.303 27.7399 208.059 27.4531 208.615 26.8796C209.172 26.2886 209.45 25.4283 209.45 24.2985V22.2128C209.45 21.083 209.172 20.2314 208.615 19.6578C208.059 19.0669 207.303 18.7714 206.347 18.7714C205.391 18.7714 204.635 19.0669 204.079 19.6578C203.523 20.2314 203.245 21.083 203.245 22.2128V24.2985C203.245 25.4283 203.523 26.2886 204.079 26.8796C204.635 27.4531 205.391 27.7399 206.347 27.7399Z" fill="#5294E2"/>
<path d="M224.665 27.6096H224.483C224.118 28.4265 223.614 29.0783 222.971 29.5649C222.345 30.0516 221.511 30.2949 220.468 30.2949C219.703 30.2949 218.999 30.1559 218.356 29.8778C217.73 29.5823 217.191 29.1478 216.74 28.5742C216.288 27.9833 215.94 27.2446 215.697 26.3582C215.453 25.4717 215.332 24.4376 215.332 23.2557C215.332 20.8919 215.801 19.1277 216.74 17.9632C217.678 16.7987 218.921 16.2164 220.468 16.2164C221.511 16.2164 222.345 16.4597 222.971 16.9464C223.614 17.4331 224.118 18.0848 224.483 18.9017H224.665V10.6893H228.002V29.9821H224.665V27.6096ZM221.876 27.6356C222.258 27.6356 222.614 27.5922 222.945 27.5053C223.292 27.401 223.588 27.262 223.831 27.0882C224.092 26.897 224.292 26.6623 224.431 26.3842C224.587 26.0887 224.665 25.7498 224.665 25.3674V21.1439C224.665 20.7615 224.587 20.4313 224.431 20.1532C224.292 19.8577 224.092 19.6231 223.831 19.4492C223.588 19.2581 223.292 19.119 222.945 19.0321C222.614 18.9278 222.258 18.8757 221.876 18.8757C220.902 18.8757 220.146 19.1711 219.607 19.7621C219.086 20.3531 218.825 21.1613 218.825 22.1867V24.3246C218.825 25.3501 219.086 26.1583 219.607 26.7492C220.146 27.3402 220.902 27.6356 221.876 27.6356Z" fill="#5294E2"/>
<path d="M237.925 30.2949C236.848 30.2949 235.892 30.1298 235.058 29.7996C234.223 29.4693 233.519 29 232.946 28.3917C232.39 27.7834 231.964 27.0534 231.668 26.2017C231.373 25.3327 231.225 24.3593 231.225 23.2817C231.225 22.1867 231.373 21.2047 231.668 20.3357C231.981 19.4666 232.416 18.7279 232.972 18.1196C233.528 17.5113 234.197 17.042 234.979 16.7118C235.779 16.3815 236.674 16.2164 237.665 16.2164C238.638 16.2164 239.516 16.3815 240.298 16.7118C241.08 17.0246 241.74 17.4765 242.279 18.0675C242.835 18.6584 243.261 19.371 243.557 20.2053C243.852 21.0396 244 21.9608 244 22.9689V24.0639H234.562V24.4028C234.562 25.3761 234.866 26.167 235.475 26.7753C236.083 27.3662 236.935 27.6617 238.03 27.6617C238.864 27.6617 239.577 27.4966 240.168 27.1664C240.776 26.8187 241.28 26.3668 241.68 25.8107L243.583 27.7139C243.096 28.4265 242.384 29.0348 241.445 29.5389C240.524 30.0429 239.351 30.2949 237.925 30.2949ZM237.691 18.6671C236.752 18.6671 235.996 18.9626 235.423 19.5535C234.849 20.1445 234.562 20.9266 234.562 21.9V22.0825H240.663V21.8478C240.663 20.8745 240.393 20.101 239.855 19.5275C239.333 18.9539 238.612 18.6671 237.691 18.6671Z" fill="#5294E2"/>
</svg>
